<?xml version="1.0" standalone="no"?>
<!DOCTYPE svg PUBLIC "-//W3C//DTD SVG 20010904//EN"
 "http://www.w3.org/TR/2001/REC-SVG-20010904/DTD/svg10.dtd">
<svg version="1.0" xmlns="http://www.w3.org/2000/svg"
 width="916.000000pt" height="285.000000pt" viewBox="0 0 916.000000 285.000000"
 preserveAspectRatio="xMidYMid meet">

<g transform="translate(0.000000,285.000000) scale(0.100000,-0.100000)"
fill="#000000" stroke="none">
<path d="M1550 2662 c0 -27 -3 -83 -6 -124 l-7 -75 89 -6 c49 -4 132 -19 184
-33 52 -15 104 -28 116 -31 17 -4 25 9 62 103 24 59 39 111 35 115 -28 26
-256 78 -410 94 l-63 6 0 -49z"/>
<path d="M477 2168 c-51 -65 -82 -108 -111 -159 l-27 -47 66 -36 c36 -20 67
-36 69 -36 3 0 19 24 37 53 17 28 52 79 77 111 l46 59 -53 49 c-29 26 -56 48
-61 48 -5 0 -24 -19 -43 -42z"/>
<path d="M1406 1981 c-3 -4 -5 -47 -4 -95 l1 -86 158 0 159 0 0 -340 0 -340
120 0 120 0 2 338 3 337 173 3 172 2 0 95 0 95 -449 0 c-248 0 -452 -4 -455
-9z"/>
<path d="M2430 1895 l0 -95 349 0 c192 0 356 -3 365 -6 13 -5 16 -22 16 -80 0
-62 -3 -75 -19 -84 -13 -6 -146 -10 -365 -10 l-346 0 0 -250 0 -250 125 0 125
0 0 150 0 150 78 0 77 -1 169 -149 169 -150 166 0 c137 0 163 2 151 13 -8 7
-80 74 -158 147 -157 147 -153 137 -58 159 27 6 62 21 79 33 49 35 57 69 57
250 0 182 -8 209 -72 248 -32 19 -52 20 -470 20 l-438 0 0 -95z"/>
<path d="M3550 1555 l0 -435 120 0 120 0 0 435 0 435 -120 0 -120 0 0 -435z"/>
<path d="M3912 1606 c3 -370 4 -386 24 -412 11 -15 38 -37 60 -48 37 -20 54
-21 419 -21 366 0 381 1 420 21 22 11 50 36 63 54 22 33 22 35 22 411 l0 379
-120 0 -120 0 0 -335 0 -335 -265 0 -265 0 0 335 0 335 -120 0 -121 0 3 -384z"/>
<path d="M5050 1555 l0 -435 120 0 120 0 0 202 c0 132 3 199 10 192 5 -5 65
-95 133 -199 l124 -190 75 -3 75 -3 129 201 c71 110 132 200 136 200 5 0 8
-90 8 -200 l0 -200 120 0 120 0 0 435 0 435 -122 0 -123 0 -170 -265 c-99
-154 -173 -261 -178 -256 -5 5 -82 123 -171 263 l-162 253 -122 3 -122 3 0
-436z"/>
<path d="M6313 1978 c3 -7 106 -202 229 -433 l225 -420 123 0 123 0 154 290
c85 160 188 354 229 433 l75 142 -128 0 -128 0 -160 -296 c-89 -163 -164 -297
-169 -298 -4 0 -78 133 -164 296 l-157 297 -129 1 c-99 0 -127 -3 -123 -12z"/>
<path d="M7560 1555 l0 -435 120 0 120 0 0 435 0 435 -120 0 -120 0 0 -435z"/>
<path d="M7930 1895 l0 -95 353 0 c261 0 356 -3 365 -12 7 -7 12 -40 12 -80 0
-56 -3 -69 -19 -78 -13 -6 -146 -10 -365 -10 l-346 0 0 -250 0 -251 123 3 122
3 3 148 3 147 77 0 77 -1 168 -149 168 -150 160 0 c87 0 159 2 159 4 0 2 -69
70 -154 150 l-154 145 36 7 c100 16 151 45 176 98 13 27 16 67 16 198 0 182
-8 209 -72 248 -32 19 -52 20 -470 20 l-438 0 0 -95z"/>
<path d="M501 1448 c-7 -29 -15 -102 -18 -162 l-6 -109 24 6 c13 4 59 7 102 7
l77 0 0 59 c0 52 12 140 25 182 4 12 -12 20 -77 38 -46 12 -90 24 -99 27 -12
3 -19 -8 -28 -48z"/>
<path d="M972 1085 c-57 -13 -106 -26 -109 -29 -10 -9 25 -111 64 -193 20 -40
37 -73 39 -73 5 0 204 129 204 132 0 2 -14 29 -30 61 -16 32 -32 74 -36 93 -7
39 1 39 -132 9z"/>
<path d="M408 734 c-16 -8 -28 -19 -28 -24 0 -14 60 -110 69 -110 10 0 51 30
51 38 0 4 -15 30 -33 59 -32 51 -32 51 -59 37z"/>
<path d="M2003 689 c-24 -17 -43 -32 -43 -35 0 -5 40 -86 46 -93 4 -5 91 47
99 59 4 7 -53 103 -59 100 -1 -1 -20 -14 -43 -31z"/>
<path d="M1579 615 c0 0 -6 -35 -13 -77 l-12 -77 63 -7 c34 -3 74 -3 88 0 27
7 30 24 19 109 l-7 45 -68 4 c-38 2 -69 3 -70 3z"/>
<path d="M998 419 c-16 -21 -28 -43 -28 -47 0 -7 131 -82 144 -82 3 0 16 21
30 47 l24 48 -65 37 c-35 21 -68 38 -71 38 -4 -1 -19 -19 -34 -41z"/>
</g>
</svg>
